<?xml version="1.0" standalone="no"?>
<!DOCTYPE svg PUBLIC "-//W3C//DTD SVG 20010904//EN"
 "http://www.w3.org/TR/2001/REC-SVG-20010904/DTD/svg10.dtd">
<svg version="1.0" xmlns="http://www.w3.org/2000/svg"
 width="256.000000pt" height="256.000000pt" viewBox="0 0 256.000000 256.000000"
 preserveAspectRatio="xMidYMid meet">
<metadata>
Created by potrace 1.14, written by Peter Selinger 2001-2017
</metadata>
<g transform="translate(0.000000,256.000000) scale(0.100000,-0.100000)"
fill="#000000" stroke="none">
<path d="M2075 2480 c-4 -6 -10 -8 -14 -5 -14 8 -75 -39 -91 -70 -8 -17 -18
-32 -22 -35 -4 -3 -12 -46 -18 -95 -5 -50 -14 -106 -20 -125 -5 -19 -10 -49
-10 -67 0 -32 -73 -268 -89 -287 -5 -6 -30 -72 -56 -146 -26 -74 -67 -191 -91
-260 -24 -69 -44 -131 -44 -138 0 -8 -6 -28 -14 -45 -8 -18 -24 -64 -36 -104
-11 -40 -24 -74 -29 -77 -4 -3 -14 -33 -21 -66 -7 -33 -16 -63 -20 -65 -7 -4
-80 155 -80 174 0 6 -4 11 -8 11 -4 0 -14 17 -21 37 -8 21 -29 71 -48 113 -19
41 -43 93 -53 115 -10 22 -26 67 -35 100 -10 33 -32 92 -50 130 -18 39 -36 81
-40 95 -9 28 -68 162 -89 200 -8 14 -28 71 -45 127 -17 56 -36 105 -41 108 -5
3 -16 31 -25 63 -39 133 -110 229 -167 225 -10 -1 -18 2 -18 7 0 5 -9 7 -20 4
-11 -2 -30 -6 -42 -9 -66 -14 -118 -95 -125 -195 -5 -62 -34 -162 -54 -186 -5
-7 -16 -45 -25 -85 -8 -40 -18 -77 -21 -82 -27 -43 -33 -156 -39 -642 -5 -490
-7 -514 -30 -621 -26 -119 -31 -204 -13 -204 6 0 9 -6 6 -13 -7 -18 11 -59 23
-52 6 4 7 -1 3 -11 -4 -12 -3 -15 5 -10 7 4 12 2 12 -5 0 -49 150 -87 167 -43
3 8 9 11 15 8 11 -7 41 19 69 57 10 15 32 80 49 145 l30 118 1 385 c1 212 4
440 8 506 l6 120 24 -60 c14 -33 38 -89 54 -125 39 -88 45 -102 67 -184 10
-39 43 -118 73 -176 30 -58 58 -117 62 -130 7 -25 24 -63 84 -193 17 -37 31
-69 31 -72 0 -10 143 -219 160 -235 9 -8 24 -36 34 -62 34 -90 127 -158 195
-141 94 23 132 76 171 233 53 214 57 233 70 295 7 33 25 94 41 135 15 41 44
129 64 195 20 66 44 138 54 160 10 22 22 56 26 75 4 19 11 40 15 45 4 6 19 46
34 90 15 44 38 103 51 130 13 28 30 70 38 95 9 25 24 70 35 101 59 165 100
500 72 584 -14 43 -21 54 -64 96 -15 16 -32 26 -37 23 -5 -3 -9 0 -9 6 0 6 -4
9 -9 5 -5 -3 -13 0 -17 6 -4 8 -9 7 -15 -2 -6 -10 -9 -11 -9 -1 0 15 -16 16
-25 2z"/>
</g>
</svg>
